PathFileType	4	(X/Y/Z)	/Users/itak/Documents/Research/Walk-IL/dataset/trc/00194_00008.trc
DataRate	CameraRate	NumFrames	NumMarkers	Units	OrigDataRate	OrigDataStartFrame	OrigNumFrames
100.000000	100.000000	4	53	mm	100.000000	708	810
Frame#	Time	RPSI			LPSI			L3			STRN			T10			C7			CLAV			RBAK			LBAK			LSHO			LUPA			LAEL			LAOL			LWTS			LWPS			LFRA			LIFD			LHPS			LHTS			RSHO			RUPA			RAEL			RAOL			RWTS			RWPS			RFRA			RIFD			RHTS			RHPS			RBHD			LFHD			RFHD			LBHD			LHIP			RHIP			RASI			LASI			LKNE			LTHI			LANK			LTIP			LTOE			LMT1			LMT5			LHEE			RKNE			RTHI			RANK			RTIP			RTOE			RMT1			RMT5			RHEE			
		X1	Y1	Z1	X2	Y2	Z2	X3	Y3	Z3	X4	Y4	Z4	X5	Y5	Z5	X6	Y6	Z6	X7	Y7	Z7	X8	Y8	Z8	X9	Y9	Z9	X10	Y10	Z10	X11	Y11	Z11	X12	Y12	Z12	X13	Y13	Z13	X14	Y14	Z14	X15	Y15	Z15	X16	Y16	Z16	X17	Y17	Z17	X18	Y18	Z18	X19	Y19	Z19	X20	Y20	Z20	X21	Y21	Z21	X22	Y22	Z22	X23	Y23	Z23	X24	Y24	Z24	X25	Y25	Z25	X26	Y26	Z26	X27	Y27	Z27	X28	Y28	Z28	X29	Y29	Z29	X30	Y30	Z30	X31	Y31	Z31	X32	Y32	Z32	X33	Y33	Z33	X34	Y34	Z34	X35	Y35	Z35	X36	Y36	Z36	X37	Y37	Z37	X38	Y38	Z38	X39	Y39	Z39	X40	Y40	Z40	X41	Y41	Z41	X42	Y42	Z42	X43	Y43	Z43	X44	Y44	Z44	X45	Y45	Z45	X46	Y46	Z46	X47	Y47	Z47	X48	Y48	Z48	X49	Y49	Z49	X50	Y50	Z50	X51	Y51	Z51	X52	Y52	Z52	X53	Y53	Z53	

709	7.08	964.012939453125	1065.685913085938	634.2662963867188	1034.596923828125	1064.833251953125	736.4120483398438	997.5516357421875	1102.486694335938	684.0592651367188	796.353759765625	1306.908447265625	858.1827392578125	1028.504516601562	1267.475463867188	670.2036743164062	979.9649658203125	1532.580200195312	733.9503173828125	825.2052612304688	1421.03515625	856.3914184570312	965.1604614257812	1367.212036132812	598.0805053710938	1051.438598632812	1506.171020507812	802.1493530273438	1044.623168945312	1490.37841796875	910.420166015625	1124.351440429688	1360.338012695312	935.2720947265625	1138.898681640625	1146.423706054688	958.8215942382812	1113.451049804688	1121.386474609375	877.5820922851562	1008.048217773438	963.1273803710938	1079.091674804688	1080.001586914062	913.8331909179688	1046.391479492188	1123.841186523438	1042.394653320312	1001.426330566406	942.3604125976562	801.3786010742188	1130.27587890625	1051.004272460938	857.736328125	1081.261962890625	1004.86376953125	895.525146484375	1122.986328125	815.3795166015625	1517.371215820312	637.0662231445312	788.1102294921875	1454.88037109375	567.9998779296875	770.3533325195312	1166.529418945312	497.0059204101562	838.949462890625	1160.967041015625	567.4282836914062	664.5900268554688	974.396484375	653.05126953125	681.2932739257812	935.0272216796875	574.3355102539062	733.7098999023438	1093.308349609375	513.183349609375	653.55126953125	800.986572265625	726.341796875	629.8574829101562	889.8556518554688	686.799560546875	655.26953125	861.707275390625	615.9219360351562	851.7156372070312	1695.8212890625	755.384765625	798.4089965820312	1681.410278320312	965.6067504882812	715.9757690429688	1679.150756835938	864.3394775390625	940.3713989257812	1708.275024414062	857.7667846679688	1017.644714355469	1001.156188964844	893.3434448242188	767.94482421875	1023.213745117188	616.5015258789062	736.7655029296875	1049.357666015625	711.8851928710938	887.3720092773438	1037.90869140625	923.667236328125	913.5507202148438	508.5016174316406	913.4336547851562	951.2662963867188	648.6721801757812	923.4243774414062	972.0208740234375	35.76931762695312	870.0452880859375	940.5711669921875	276.1947631835938	906.2660522460938	766.39404296875	43.36155700683594	955.3431396484375	787.2841186523438	48.44564056396484	890.74560546875	899.4321899414062	31.32849884033203	956.6578369140625	981.8031005859375	40.48867416381836	785.366455078125	707.9478759765625	518.7772827148438	684.2811279296875	697.8701171875	795.2911376953125	652.9056396484375	872.5986938476562	44.68459320068359	626.3469848632812	724.42236328125	393.3774108886719	692.2091064453125	691.6187744140625	80.91720581054688	732.2764892578125	752.6541748046875	64.30873107910156	758.73779296875	758.544189453125	47.60651779174805	634.990234375	946.3433837890625	49.01936721801758	668.393310546875	
710	7.09	963.0552368164062	1065.667358398438	636.5184326171875	1033.297119140625	1064.682739257812	738.9242553710938	996.354736328125	1102.37109375	686.504638671875	794.7844848632812	1307.062744140625	859.5619506835938	1027.784912109375	1267.320068359375	672.8140869140625	979.225341796875	1532.518188476562	736.1614379882812	823.7266235351562	1421.190795898438	857.8626098632812	965.051025390625	1367.065063476562	600.3283081054688	1050.279663085938	1506.042114257812	804.7948608398438	1042.91162109375	1490.290771484375	912.9938354492188	1122.259521484375	1360.12109375	938.3551635742188	1136.166870117188	1146.1708984375	962.232666015625	1111.082397460938	1121.10693359375	880.8949584960938	1003.669860839844	963.6697998046875	1081.954467773438	1075.755004882812	913.8988037109375	1049.774047851562	1120.456298828125	1042.230590820312	1004.88623046875	937.055908203125	802.3184204101562	1133.135620117188	1046.27490234375	857.992431640625	1084.554443359375	1000.167846679688	896.0825805664062	1126.054931640625	815.1341552734375	1517.30029296875	638.4129638671875	788.2998657226562	1454.829711914062	569.1956787109375	771.131103515625	1166.67578125	497.7860717773438	839.1982421875	1160.9697265625	568.7173461914062	664.4185180664062	973.3485717773438	651.7651977539062	682.09814453125	934.4973754882812	572.9342651367188	734.6031494140625	1093.300415039062	513.0389404296875	653.6705322265625	799.3325805664062	723.7936401367188	630.010986328125	888.3917846679688	684.7389526367188	655.9802856445312	860.8782348632812	613.8692626953125	850.91162109375	1695.888916015625	756.8665771484375	796.3295288085938	1681.543090820312	966.7614135742188	714.5193481445312	1679.297119140625	864.9825439453125	938.9230346679688	1708.339721679688	859.7546997070312	1015.685119628906	1000.947998046875	895.724609375	766.9138793945312	1023.434020996094	618.1058349609375	735.5752563476562	1049.523559570312	713.32421875	885.019775390625	1037.953247070312	925.13330078125	912.8615112304688	508.31103515625	914.0484619140625	949.9364013671875	648.5015258789062	924.6683349609375	971.9479370117188	35.90166854858398	869.9890747070312	940.1851806640625	276.0615844726562	906.5416870117188	766.3079223632812	43.28666687011719	955.3145141601562	787.16162109375	48.29243087768555	890.6256713867188	899.3540649414062	31.41687774658203	956.6075439453125	981.7926635742188	40.52051162719727	785.2658081054688	708.7797241210938	518.7584838867188	684.27783203125	697.3392333984375	795.10888671875	653.6143798828125	870.26025390625	42.93552017211914	630.4535522460938	724.4281616210938	393.4068908691406	692.8445434570312	688.334716796875	79.32781219482422	734.8618774414062	749.31982421875	63.02972412109375	761.6370239257812	756.076171875	46.05655288696289	638.0913696289062	943.5501098632812	47.35945510864258	673.0860595703125	
711	7.100000000000001	962.0704345703125	1065.602416992188	638.6614379882812	1031.993286132812	1064.51611328125	741.3045654296875	995.1585083007812	1102.22216796875	688.807861328125	793.2425537109375	1307.163208007812	860.85400390625	1027.027099609375	1267.120849609375	675.251708984375	978.4747924804688	1532.42138671875	738.2177124023438	822.2761840820312	1421.295288085938	859.2198486328125	964.8842163085938	1366.868408203125	602.427490234375	1049.131958007812	1505.870483398438	807.248046875	1041.246826171875	1490.15576171875	915.3858032226562	1120.205322265625	1359.845825195312	941.2199096679688	1133.461303710938	1145.848388671875	965.3738403320312	1108.725219726562	1120.794311523438	883.931884765625	999.5323486328125	963.9307861328125	1084.468383789062	1071.681518554688	913.796142578125	1052.697631835938	1117.15087890625	1041.960205078125	1007.994995117188	932.0191650390625	802.9036254882812	1135.441650390625	1041.756103515625	858.0291137695312	1087.33056640625	995.6337280273438	896.3464965820312	1128.633056640625	814.8521118164062	1517.182006835938	639.6594848632812	788.4215698242188	1454.723876953125	570.3042602539062	771.8497314453125	1166.783569335938	498.4569702148438	839.378173828125	1160.913452148438	569.8966064453125	664.0892944335938	972.238037109375	650.2827758789062	682.875244140625	933.9208984375	571.3782958984375	735.4445190429688	1093.262451171875	512.785400390625	653.6251831054688	797.6577758789062	721.0582275390625	630.0022583007812	886.92822265625	682.434326171875	656.6261596679688	860.0196533203125	611.6390380859375	850.1448974609375	1695.920776367188	758.2113037109375	794.323974609375	1681.667602539062	967.786865234375	713.1180419921875	1679.429931640625	865.49462890625	937.5306396484375	1708.363647460938	861.5973510742188	1013.724548339844	1000.763061523438	897.9984741210938	765.7978515625	1023.536071777344	619.6610107421875	734.34130859375	1049.601196289062	714.6778564453125	882.600830078125	1038.04150390625	926.4008178710938	912.1959228515625	508.1217346191406	914.6644897460938	948.6398315429688	648.3500366210938	925.8827514648438	971.8938598632812	36.00131607055664	869.9517822265625	939.8129272460938	275.8845520019531	906.82568359375	766.2407836914062	43.22837829589844	955.2857055664062	787.0626831054688	48.15525817871094	890.5181884765625	899.2876586914062	31.49176788330078	956.559326171875	981.7850952148438	40.53105545043945	785.1973876953125	709.7133178710938	518.6740112304688	684.3276977539062	696.868408203125	794.7833251953125	654.2089233398438	868.5359497070312	41.57753372192383	633.7650146484375	724.6371459960938	393.3782043457031	693.4183349609375	685.5504150390625	77.13210296630859	736.9102172851562	746.6516723632812	61.46515274047852	763.87890625	754.1705322265625	44.58706283569336	640.49658203125	941.4088134765625	46.10653305053711	676.9016723632812	
712	7.11	961.0707397460938	1065.493530273438	640.7064819335938	1030.688598632812	1064.336547851562	743.5667114257812	993.9739990234375	1102.04443359375	690.9786376953125	791.7222290039062	1307.210327148438	862.0463256835938	1026.23583984375	1266.884765625	677.5233154296875	977.71337890625	1532.295532226562	740.127197265625	820.8492431640625	1421.346923828125	860.458740234375	964.663330078125	1366.629638671875	604.3814697265625	1047.997924804688	1505.664428710938	809.517333984375	1039.623901367188	1489.977783203125	917.6025390625	1118.186401367188	1359.517456054688	943.875244140625	1130.7841796875	1145.463745117188	968.2568359375	1106.391967773438	1120.454345703125	886.701904296875	995.6075439453125	963.9266967773438	1086.610595703125	1067.790893554688	913.5303955078125	1055.177368164062	1113.931396484375	1041.590209960938	1010.764770507812	927.2505493164062	803.1307373046875	1137.187866210938	1037.460815429688	857.85302734375	1089.609619140625	991.2681884765625	896.3245239257812	1130.728515625	814.5369262695312	1517.021606445312	640.8079223632812	788.4765625	1454.572021484375	571.3248901367188	772.5120849609375	1166.85693359375	499.0210266113281	839.4876708984375	1160.806274414062	570.9686279296875	663.6420288085938	971.0821533203125	648.635498046875	683.6126708984375	933.3206176757812	569.693603515625	736.2249755859375	1093.208374023438	512.4534912109375	653.4053344726562	795.9916381835938	718.166015625	629.8267211914062	885.4984130859375	679.9216918945312	657.1979370117188	859.1536254882812	609.25146484375	849.4068603515625	1695.919555664062	759.426025390625	792.383056640625	1681.78125	968.6854248046875	711.7628784179688	1679.543823242188	865.8822021484375	936.1876220703125	1708.355102539062	863.3018188476562	1011.755981445312	1000.6103515625	900.18212890625	764.6514892578125	1023.52294921875	621.144775390625	733.0751953125	1049.599853515625	715.9349365234375	880.1729125976562	1038.154907226562	927.5741577148438	911.5549926757812	507.9279479980469	915.2698974609375	947.3792114257812	648.2186279296875	927.066650390625	971.8551635742188	36.07353210449219	869.9298706054688	939.4609985351562	275.6831665039062	907.1185302734375	766.1904907226562	43.18621444702148	955.2570190429688	786.9869995117188	48.03948211669922	890.42578125	899.22998046875	31.5518741607666	956.5099487304688	981.7824096679688	40.52947998046875	785.1571655273438	710.7384033203125	518.5250244140625	684.4654541015625	696.4449462890625	794.3325805664062	654.6961669921875	867.3565673828125	40.58212280273438	636.275634765625	725.0347290039062	393.294189453125	693.9530639648438	683.1646118164062	74.43507385253906	738.418701171875	744.5606689453125	59.71321868896484	765.462646484375	752.7561645507812	43.22946929931641	642.2061767578125	939.8764038085938	45.1912956237793	679.8225708007812	
